<mxfile host="app.diagrams.net" modified="2023-12-08T11:57:19.357Z" agent="Mozilla/5.0 (Windows NT 10.0; Win64; x64) AppleWebKit/537.36 (KHTML, like Gecko) Chrome/119.0.0.0 Safari/537.36 Edg/119.0.0.0" etag="tsQRRqaEcmkgJkMZRPCw" version="22.1.7" type="github">
  <diagram id="prtHgNgQTEPvFCAcTncT" name="Page-1">
    <mxGraphModel dx="2400" dy="1618" grid="1" gridSize="10" guides="1" tooltips="1" connect="1" arrows="1" fold="1" page="1" pageScale="1" pageWidth="827" pageHeight="1169" math="0" shadow="0">
      <root>
        <mxCell id="0" />
        <mxCell id="1" parent="0" />
        <mxCell id="dNxyNK7c78bLwvsdeMH5-19" value="购买流程图" style="swimlane;html=1;childLayout=stackLayout;resizeParent=1;resizeParentMax=0;horizontal=0;startSize=20;horizontalStack=0;" parent="1" vertex="1">
          <mxGeometry x="190" y="319" width="1198" height="900" as="geometry" />
        </mxCell>
        <mxCell id="dNxyNK7c78bLwvsdeMH5-20" value="采购员" style="swimlane;html=1;startSize=20;horizontal=0;" parent="dNxyNK7c78bLwvsdeMH5-19" vertex="1">
          <mxGeometry x="20" width="1178" height="300" as="geometry">
            <mxRectangle x="20" width="560" height="30" as="alternateBounds" />
          </mxGeometry>
        </mxCell>
        <mxCell id="m_HcJ7Eua_NtlflMwqbh-21" value="" style="edgeStyle=orthogonalEdgeStyle;rounded=0;orthogonalLoop=1;jettySize=auto;html=1;" edge="1" parent="dNxyNK7c78bLwvsdeMH5-20" source="m_HcJ7Eua_NtlflMwqbh-19" target="m_HcJ7Eua_NtlflMwqbh-20">
          <mxGeometry relative="1" as="geometry" />
        </mxCell>
        <mxCell id="m_HcJ7Eua_NtlflMwqbh-19" value="采购" style="rounded=0;whiteSpace=wrap;html=1;" vertex="1" parent="dNxyNK7c78bLwvsdeMH5-20">
          <mxGeometry x="260" y="180" width="120" height="60" as="geometry" />
        </mxCell>
        <mxCell id="m_HcJ7Eua_NtlflMwqbh-23" value="" style="edgeStyle=orthogonalEdgeStyle;rounded=0;orthogonalLoop=1;jettySize=auto;html=1;" edge="1" parent="dNxyNK7c78bLwvsdeMH5-20" source="m_HcJ7Eua_NtlflMwqbh-20" target="m_HcJ7Eua_NtlflMwqbh-22">
          <mxGeometry relative="1" as="geometry" />
        </mxCell>
        <mxCell id="m_HcJ7Eua_NtlflMwqbh-30" value="" style="edgeStyle=orthogonalEdgeStyle;rounded=0;orthogonalLoop=1;jettySize=auto;html=1;" edge="1" parent="dNxyNK7c78bLwvsdeMH5-20" source="m_HcJ7Eua_NtlflMwqbh-20" target="m_HcJ7Eua_NtlflMwqbh-29">
          <mxGeometry relative="1" as="geometry" />
        </mxCell>
        <mxCell id="m_HcJ7Eua_NtlflMwqbh-20" value="商品到货" style="whiteSpace=wrap;html=1;rounded=0;" vertex="1" parent="dNxyNK7c78bLwvsdeMH5-20">
          <mxGeometry x="460" y="180" width="120" height="60" as="geometry" />
        </mxCell>
        <mxCell id="m_HcJ7Eua_NtlflMwqbh-25" value="" style="edgeStyle=orthogonalEdgeStyle;rounded=0;orthogonalLoop=1;jettySize=auto;html=1;" edge="1" parent="dNxyNK7c78bLwvsdeMH5-20" source="m_HcJ7Eua_NtlflMwqbh-22" target="m_HcJ7Eua_NtlflMwqbh-24">
          <mxGeometry relative="1" as="geometry" />
        </mxCell>
        <mxCell id="m_HcJ7Eua_NtlflMwqbh-22" value="质量检查" style="whiteSpace=wrap;html=1;rounded=0;" vertex="1" parent="dNxyNK7c78bLwvsdeMH5-20">
          <mxGeometry x="660" y="180" width="120" height="60" as="geometry" />
        </mxCell>
        <mxCell id="m_HcJ7Eua_NtlflMwqbh-27" value="" style="edgeStyle=orthogonalEdgeStyle;rounded=0;orthogonalLoop=1;jettySize=auto;html=1;" edge="1" parent="dNxyNK7c78bLwvsdeMH5-20" source="m_HcJ7Eua_NtlflMwqbh-24" target="m_HcJ7Eua_NtlflMwqbh-26">
          <mxGeometry relative="1" as="geometry" />
        </mxCell>
        <mxCell id="m_HcJ7Eua_NtlflMwqbh-28" value="不合格" style="edgeLabel;html=1;align=center;verticalAlign=middle;resizable=0;points=[];" vertex="1" connectable="0" parent="m_HcJ7Eua_NtlflMwqbh-27">
          <mxGeometry x="-0.0645" y="2" relative="1" as="geometry">
            <mxPoint y="-1" as="offset" />
          </mxGeometry>
        </mxCell>
        <mxCell id="m_HcJ7Eua_NtlflMwqbh-32" value="" style="edgeStyle=orthogonalEdgeStyle;rounded=0;orthogonalLoop=1;jettySize=auto;html=1;" edge="1" parent="dNxyNK7c78bLwvsdeMH5-20" source="m_HcJ7Eua_NtlflMwqbh-24" target="m_HcJ7Eua_NtlflMwqbh-31">
          <mxGeometry relative="1" as="geometry" />
        </mxCell>
        <mxCell id="m_HcJ7Eua_NtlflMwqbh-33" value="合格" style="edgeLabel;html=1;align=center;verticalAlign=middle;resizable=0;points=[];" vertex="1" connectable="0" parent="m_HcJ7Eua_NtlflMwqbh-32">
          <mxGeometry x="0.0859" y="-5" relative="1" as="geometry">
            <mxPoint as="offset" />
          </mxGeometry>
        </mxCell>
        <mxCell id="m_HcJ7Eua_NtlflMwqbh-24" value="是否合格" style="rhombus;whiteSpace=wrap;html=1;rounded=0;" vertex="1" parent="dNxyNK7c78bLwvsdeMH5-20">
          <mxGeometry x="880" y="170" width="80" height="80" as="geometry" />
        </mxCell>
        <mxCell id="m_HcJ7Eua_NtlflMwqbh-26" value="返回商品" style="whiteSpace=wrap;html=1;rounded=0;" vertex="1" parent="dNxyNK7c78bLwvsdeMH5-20">
          <mxGeometry x="860" y="20" width="120" height="60" as="geometry" />
        </mxCell>
        <mxCell id="m_HcJ7Eua_NtlflMwqbh-29" value="到货商品清单" style="shape=document;whiteSpace=wrap;html=1;boundedLbl=1;rounded=0;" vertex="1" parent="dNxyNK7c78bLwvsdeMH5-20">
          <mxGeometry x="460" y="30" width="120" height="80" as="geometry" />
        </mxCell>
        <mxCell id="m_HcJ7Eua_NtlflMwqbh-35" value="" style="edgeStyle=orthogonalEdgeStyle;rounded=0;orthogonalLoop=1;jettySize=auto;html=1;" edge="1" parent="dNxyNK7c78bLwvsdeMH5-20" source="m_HcJ7Eua_NtlflMwqbh-31" target="m_HcJ7Eua_NtlflMwqbh-34">
          <mxGeometry relative="1" as="geometry" />
        </mxCell>
        <mxCell id="m_HcJ7Eua_NtlflMwqbh-31" value="商品入库、运送" style="whiteSpace=wrap;html=1;rounded=0;" vertex="1" parent="dNxyNK7c78bLwvsdeMH5-20">
          <mxGeometry x="1020" y="180" width="120" height="60" as="geometry" />
        </mxCell>
        <mxCell id="m_HcJ7Eua_NtlflMwqbh-34" value="库存清单" style="shape=document;whiteSpace=wrap;html=1;boundedLbl=1;rounded=0;" vertex="1" parent="dNxyNK7c78bLwvsdeMH5-20">
          <mxGeometry x="1020" y="30" width="120" height="80" as="geometry" />
        </mxCell>
        <mxCell id="dNxyNK7c78bLwvsdeMH5-21" value="管理员" style="swimlane;html=1;startSize=20;horizontal=0;" parent="dNxyNK7c78bLwvsdeMH5-19" vertex="1">
          <mxGeometry x="20" y="300" width="1178" height="300" as="geometry" />
        </mxCell>
        <mxCell id="m_HcJ7Eua_NtlflMwqbh-6" style="edgeStyle=orthogonalEdgeStyle;rounded=0;orthogonalLoop=1;jettySize=auto;html=1;entryX=0.5;entryY=0;entryDx=0;entryDy=0;" edge="1" parent="dNxyNK7c78bLwvsdeMH5-21" source="m_HcJ7Eua_NtlflMwqbh-4" target="m_HcJ7Eua_NtlflMwqbh-5">
          <mxGeometry relative="1" as="geometry" />
        </mxCell>
        <mxCell id="m_HcJ7Eua_NtlflMwqbh-4" value="发布商品信息" style="rounded=0;whiteSpace=wrap;html=1;" vertex="1" parent="dNxyNK7c78bLwvsdeMH5-21">
          <mxGeometry x="50" y="20" width="120" height="60" as="geometry" />
        </mxCell>
        <mxCell id="m_HcJ7Eua_NtlflMwqbh-5" value="商品信息" style="shape=document;whiteSpace=wrap;html=1;boundedLbl=1;" vertex="1" parent="dNxyNK7c78bLwvsdeMH5-21">
          <mxGeometry x="50" y="150" width="120" height="80" as="geometry" />
        </mxCell>
        <mxCell id="m_HcJ7Eua_NtlflMwqbh-18" value="" style="edgeStyle=orthogonalEdgeStyle;rounded=0;orthogonalLoop=1;jettySize=auto;html=1;" edge="1" parent="dNxyNK7c78bLwvsdeMH5-21" source="m_HcJ7Eua_NtlflMwqbh-16" target="m_HcJ7Eua_NtlflMwqbh-17">
          <mxGeometry relative="1" as="geometry" />
        </mxCell>
        <mxCell id="m_HcJ7Eua_NtlflMwqbh-16" value="整合订单" style="rounded=0;whiteSpace=wrap;html=1;" vertex="1" parent="dNxyNK7c78bLwvsdeMH5-21">
          <mxGeometry x="260" y="160" width="120" height="60" as="geometry" />
        </mxCell>
        <mxCell id="m_HcJ7Eua_NtlflMwqbh-17" value="采购清单" style="shape=document;whiteSpace=wrap;html=1;boundedLbl=1;rounded=0;" vertex="1" parent="dNxyNK7c78bLwvsdeMH5-21">
          <mxGeometry x="260" y="20" width="120" height="80" as="geometry" />
        </mxCell>
        <mxCell id="dNxyNK7c78bLwvsdeMH5-22" value="用户" style="swimlane;html=1;startSize=20;horizontal=0;" parent="dNxyNK7c78bLwvsdeMH5-19" vertex="1">
          <mxGeometry x="20" y="600" width="1178" height="300" as="geometry" />
        </mxCell>
        <mxCell id="m_HcJ7Eua_NtlflMwqbh-11" value="" style="edgeStyle=orthogonalEdgeStyle;rounded=0;orthogonalLoop=1;jettySize=auto;html=1;" edge="1" parent="dNxyNK7c78bLwvsdeMH5-22" source="m_HcJ7Eua_NtlflMwqbh-9" target="m_HcJ7Eua_NtlflMwqbh-10">
          <mxGeometry relative="1" as="geometry" />
        </mxCell>
        <mxCell id="m_HcJ7Eua_NtlflMwqbh-9" value="浏览网站" style="rounded=0;whiteSpace=wrap;html=1;" vertex="1" parent="dNxyNK7c78bLwvsdeMH5-22">
          <mxGeometry x="50" y="51" width="120" height="60" as="geometry" />
        </mxCell>
        <mxCell id="m_HcJ7Eua_NtlflMwqbh-13" value="" style="edgeStyle=orthogonalEdgeStyle;rounded=0;orthogonalLoop=1;jettySize=auto;html=1;" edge="1" parent="dNxyNK7c78bLwvsdeMH5-22" source="m_HcJ7Eua_NtlflMwqbh-10" target="m_HcJ7Eua_NtlflMwqbh-12">
          <mxGeometry relative="1" as="geometry" />
        </mxCell>
        <mxCell id="m_HcJ7Eua_NtlflMwqbh-10" value="购物清单" style="shape=document;whiteSpace=wrap;html=1;boundedLbl=1;rounded=0;" vertex="1" parent="dNxyNK7c78bLwvsdeMH5-22">
          <mxGeometry x="50" y="180" width="120" height="80" as="geometry" />
        </mxCell>
        <mxCell id="m_HcJ7Eua_NtlflMwqbh-15" value="" style="edgeStyle=orthogonalEdgeStyle;rounded=0;orthogonalLoop=1;jettySize=auto;html=1;" edge="1" parent="dNxyNK7c78bLwvsdeMH5-22" source="m_HcJ7Eua_NtlflMwqbh-12" target="m_HcJ7Eua_NtlflMwqbh-14">
          <mxGeometry relative="1" as="geometry" />
        </mxCell>
        <mxCell id="m_HcJ7Eua_NtlflMwqbh-12" value="下订单" style="whiteSpace=wrap;html=1;rounded=0;" vertex="1" parent="dNxyNK7c78bLwvsdeMH5-22">
          <mxGeometry x="260" y="190" width="120" height="60" as="geometry" />
        </mxCell>
        <mxCell id="m_HcJ7Eua_NtlflMwqbh-14" value="订单信息" style="shape=document;whiteSpace=wrap;html=1;boundedLbl=1;rounded=0;" vertex="1" parent="dNxyNK7c78bLwvsdeMH5-22">
          <mxGeometry x="260" y="41" width="120" height="80" as="geometry" />
        </mxCell>
        <mxCell id="m_HcJ7Eua_NtlflMwqbh-41" value="" style="edgeStyle=orthogonalEdgeStyle;rounded=0;orthogonalLoop=1;jettySize=auto;html=1;" edge="1" parent="dNxyNK7c78bLwvsdeMH5-22" source="m_HcJ7Eua_NtlflMwqbh-36" target="m_HcJ7Eua_NtlflMwqbh-40">
          <mxGeometry relative="1" as="geometry" />
        </mxCell>
        <mxCell id="m_HcJ7Eua_NtlflMwqbh-36" value="收货" style="rounded=0;whiteSpace=wrap;html=1;" vertex="1" parent="dNxyNK7c78bLwvsdeMH5-22">
          <mxGeometry x="1020" y="51" width="120" height="60" as="geometry" />
        </mxCell>
        <mxCell id="m_HcJ7Eua_NtlflMwqbh-40" value="购买流程结束" style="rounded=1;whiteSpace=wrap;html=1;" vertex="1" parent="dNxyNK7c78bLwvsdeMH5-22">
          <mxGeometry x="1020" y="180" width="120" height="60" as="geometry" />
        </mxCell>
        <mxCell id="m_HcJ7Eua_NtlflMwqbh-44" style="edgeStyle=orthogonalEdgeStyle;rounded=0;orthogonalLoop=1;jettySize=auto;html=1;exitX=0.5;exitY=1;exitDx=0;exitDy=0;" edge="1" parent="dNxyNK7c78bLwvsdeMH5-19" source="m_HcJ7Eua_NtlflMwqbh-31" target="m_HcJ7Eua_NtlflMwqbh-36">
          <mxGeometry relative="1" as="geometry" />
        </mxCell>
        <mxCell id="m_HcJ7Eua_NtlflMwqbh-45" style="edgeStyle=orthogonalEdgeStyle;rounded=0;orthogonalLoop=1;jettySize=auto;html=1;exitX=0.5;exitY=0;exitDx=0;exitDy=0;entryX=0.5;entryY=1;entryDx=0;entryDy=0;" edge="1" parent="dNxyNK7c78bLwvsdeMH5-19" source="m_HcJ7Eua_NtlflMwqbh-17" target="m_HcJ7Eua_NtlflMwqbh-19">
          <mxGeometry relative="1" as="geometry" />
        </mxCell>
        <mxCell id="m_HcJ7Eua_NtlflMwqbh-46" style="edgeStyle=orthogonalEdgeStyle;rounded=0;orthogonalLoop=1;jettySize=auto;html=1;exitX=0.5;exitY=0;exitDx=0;exitDy=0;entryX=0.5;entryY=1;entryDx=0;entryDy=0;" edge="1" parent="dNxyNK7c78bLwvsdeMH5-19" source="m_HcJ7Eua_NtlflMwqbh-14" target="m_HcJ7Eua_NtlflMwqbh-16">
          <mxGeometry relative="1" as="geometry" />
        </mxCell>
        <mxCell id="m_HcJ7Eua_NtlflMwqbh-47" value="" style="endArrow=classic;html=1;rounded=0;entryX=0.5;entryY=0;entryDx=0;entryDy=0;" edge="1" parent="dNxyNK7c78bLwvsdeMH5-19" target="m_HcJ7Eua_NtlflMwqbh-9">
          <mxGeometry width="50" height="50" relative="1" as="geometry">
            <mxPoint x="130" y="531" as="sourcePoint" />
            <mxPoint x="380" y="451" as="targetPoint" />
            <Array as="points" />
          </mxGeometry>
        </mxCell>
      </root>
    </mxGraphModel>
  </diagram>
</mxfile>
